<?xml version="1.0" encoding="UTF-8" standalone="no"?>
<svg
   xmlns:dc="http://purl.org/dc/elements/1.1/"
   xmlns:cc="http://creativecommons.org/ns#"
   xmlns:rdf="http://www.w3.org/1999/02/22-rdf-syntax-ns#"
   xmlns:svg="http://www.w3.org/2000/svg"
   xmlns="http://www.w3.org/2000/svg"
   xmlns:sodipodi="http://sodipodi.sourceforge.net/DTD/sodipodi-0.dtd"
   xmlns:inkscape="http://www.inkscape.org/namespaces/inkscape"
   id="Layer"
   enable-background="new 0 0 64 64"
   height="512"
   viewBox="0 0 64 64"
   width="512"
   version="1.1"
   sodipodi:docname="bedroll.svg"
   inkscape:version="0.92.2 (5c3e80d, 2017-08-06)">
  <metadata
     id="metadata13">
    <rdf:RDF>
      <cc:Work
         rdf:about="">
        <dc:format>image/svg+xml</dc:format>
        <dc:type
           rdf:resource="http://purl.org/dc/dcmitype/StillImage" />
      </cc:Work>
    </rdf:RDF>
  </metadata>
  <defs
     id="defs11" />
  <sodipodi:namedview
     pagecolor="#ffffff"
     bordercolor="#666666"
     borderopacity="1"
     objecttolerance="10"
     gridtolerance="10"
     guidetolerance="10"
     inkscape:pageopacity="0"
     inkscape:pageshadow="2"
     inkscape:window-width="640"
     inkscape:window-height="480"
     id="namedview9"
     showgrid="false"
     inkscape:zoom="0.4609375"
     inkscape:cx="256"
     inkscape:cy="256"
     inkscape:window-x="256"
     inkscape:window-y="34"
     inkscape:window-maximized="0"
     inkscape:current-layer="Layer" />
  <path
     d="m36 8.027h-8c-4.411 0-8 3.589-8 8v31.973c0 4.411 3.589 8 8 8h8c4.411 0 8-3.589 8-8v-31.973c0-4.411-3.589-8-8-8zm-8 2h8c3.309 0 6 2.691 6 6s-2.691 6-6 6h-8c-3.309 0-6-2.691-6-6 0-3.308 2.691-6 6-6zm14 37.973c0 3.309-2.691 6-6 6h-8c-3.309 0-6-2.691-6-6v-2.726c1.467 1.667 3.61 2.726 6 2.726h9c.552 0 1-.447 1-1v-6c0-.553-.448-1-1-1s-1 .447-1 1v5h-8c-3.309 0-6-2.691-6-6v-10.699c1.467 1.667 3.61 2.726 6 2.726h8v3c0 .553.448 1 1 1s1-.447 1-1v-4c0-.553-.448-1-1-1h-9c-3.309 0-6-2.691-6-6v-2.726c1.467 1.667 3.61 2.726 6 2.726h8c2.39 0 4.533-1.059 6-2.726z"
     id="path2"
     style="fill:#ffffff" />
  <path
     d="m28 20.027h8c2.206 0 4-1.794 4-4s-1.794-4-4-4h-8c-2.206 0-4 1.794-4 4s1.794 4 4 4zm0-6h8c1.103 0 2 .898 2 2 0 1.103-.897 2-2 2h-8c-1.103 0-2-.897-2-2 0-1.102.897-2 2-2z"
     id="path4"
     style="fill:#ffffff" />
  <circle
     cx="37"
     cy="38"
     r="1"
     id="circle6"
     style="fill:#ffffff" />
</svg>
