<?xml version="1.0" encoding="UTF-8" standalone="no"?>
<svg
   xmlns:dc="http://purl.org/dc/elements/1.1/"
   xmlns:cc="http://creativecommons.org/ns#"
   xmlns:rdf="http://www.w3.org/1999/02/22-rdf-syntax-ns#"
   xmlns:svg="http://www.w3.org/2000/svg"
   xmlns="http://www.w3.org/2000/svg"
   xmlns:sodipodi="http://sodipodi.sourceforge.net/DTD/sodipodi-0.dtd"
   xmlns:inkscape="http://www.inkscape.org/namespaces/inkscape"
   height="512"
   viewBox="0 0 128 128"
   width="512"
   version="1.1"
   id="svg3771"
   sodipodi:docname="cudgel.svg"
   inkscape:version="0.92.2 (5c3e80d, 2017-08-06)">
  <metadata
     id="metadata3777">
    <rdf:RDF>
      <cc:Work
         rdf:about="">
        <dc:format>image/svg+xml</dc:format>
        <dc:type
           rdf:resource="http://purl.org/dc/dcmitype/StillImage" />
      </cc:Work>
    </rdf:RDF>
  </metadata>
  <defs
     id="defs3775" />
  <sodipodi:namedview
     pagecolor="#ffffff"
     bordercolor="#666666"
     borderopacity="1"
     objecttolerance="10"
     gridtolerance="10"
     guidetolerance="10"
     inkscape:pageopacity="0"
     inkscape:pageshadow="2"
     inkscape:window-width="1832"
     inkscape:window-height="1057"
     id="namedview3773"
     showgrid="false"
     inkscape:zoom="0.4609375"
     inkscape:cx="256"
     inkscape:cy="256"
     inkscape:window-x="80"
     inkscape:window-y="-8"
     inkscape:window-maximized="1"
     inkscape:current-layer="svg3771" />
  <g
     id="g3769"
     style="fill:#ffffff">
    <path
       d="m106.027 21.955a19.215 19.215 0 0 0 -27.916.786l-19.005 21.277a9.527 9.527 0 0 0 -1.771 9.882 6.108 6.108 0 0 1 -1.2 6.356l-38.064 40.992a6.249 6.249 0 0 0 -.391 8.164 6.081 6.081 0 0 0 4.33 2.246c.139.009.278.014.417.014a6.15 6.15 0 0 0 4.172-1.636l41.129-38.187a6.107 6.107 0 0 1 6.355-1.2 9.526 9.526 0 0 0 9.881-1.77l21.277-19.005a19.215 19.215 0 0 0 .786-27.916zm-70.818 75.311-4.493-4.493 1.736-1.87 4.627 4.627zm-4.437 4.119-4.172-4.175 1.737-1.871 4.31 4.31zm-6.555 6.087a2.557 2.557 0 0 1 -1.966.694 2.615 2.615 0 0 1 -1.86-.969 2.737 2.737 0 0 1 .245-3.568l3.577-3.853 3.993 3.992zm78.692-60.211-21.277 19.005a6.045 6.045 0 0 1 -6.268 1.123 9.629 9.629 0 0 0 -10.018 1.9l-25.7 23.863-4.81-4.81 23.864-25.706a9.627 9.627 0 0 0 1.894-10.018 6.041 6.041 0 0 1 1.123-6.268l19.004-21.277a15.567 15.567 0 0 1 11.279-5.24c.153 0 .305-.006.458-.006a15.715 15.715 0 0 1 10.452 27.434z"
       id="path3761"
       style="fill:#ffffff" />
    <path
       d="m81.09 31.141-8.583 9.281a1.75 1.75 0 0 0 2.57 2.377l8.583-9.281a1.75 1.75 0 1 0 -2.57-2.377z"
       id="path3763"
       style="fill:#ffffff" />
    <path
       d="m101.549 28.479a1.75 1.75 0 0 0 -2.474 2.475 6.389 6.389 0 0 1 0 9.035 1.75 1.75 0 1 0 2.474 2.475 9.887 9.887 0 0 0 0-13.985z"
       id="path3765"
       style="fill:#ffffff" />
    <path
       d="m76.391 58.544-7.321.272a1.75 1.75 0 0 0 .064 3.5h.066l7.321-.272a1.75 1.75 0 1 0 -.13-3.5z"
       id="path3767"
       style="fill:#ffffff" />
  </g>
</svg>
