<?xml version="1.0" encoding="UTF-8" standalone="no"?>
<svg
   xmlns:dc="http://purl.org/dc/elements/1.1/"
   xmlns:cc="http://creativecommons.org/ns#"
   xmlns:rdf="http://www.w3.org/1999/02/22-rdf-syntax-ns#"
   xmlns:svg="http://www.w3.org/2000/svg"
   xmlns="http://www.w3.org/2000/svg"
   xmlns:sodipodi="http://sodipodi.sourceforge.net/DTD/sodipodi-0.dtd"
   xmlns:inkscape="http://www.inkscape.org/namespaces/inkscape"
   height="480pt"
   viewBox="0 0 480.00018 480"
   width="480pt"
   version="1.1"
   id="svg6"
   sodipodi:docname="file.svg"
   inkscape:version="0.92.2 (5c3e80d, 2017-08-06)">
  <metadata
     id="metadata12">
    <rdf:RDF>
      <cc:Work
         rdf:about="">
        <dc:format>image/svg+xml</dc:format>
        <dc:type
           rdf:resource="http://purl.org/dc/dcmitype/StillImage" />
      </cc:Work>
    </rdf:RDF>
  </metadata>
  <defs
     id="defs10" />
  <sodipodi:namedview
     pagecolor="#ffffff"
     bordercolor="#666666"
     borderopacity="1"
     objecttolerance="10"
     gridtolerance="10"
     guidetolerance="10"
     inkscape:pageopacity="0"
     inkscape:pageshadow="2"
     inkscape:window-width="640"
     inkscape:window-height="480"
     id="namedview8"
     showgrid="false"
     inkscape:zoom="0.36875"
     inkscape:cx="320"
     inkscape:cy="320"
     inkscape:window-x="614"
     inkscape:window-y="173"
     inkscape:window-maximized="0"
     inkscape:current-layer="svg6" />
  <path
     d="m52.226562 480c14.886719-.019531 29.0625-6.375 38.976563-17.480469l88.3125-101.210937c5.164063-5.914063 12.632813-9.308594 20.484375-9.308594 2.125-.003906 4.15625-.84375 5.65625-2.34375l16-16c3.125-3.125 3.125-8.191406 0-11.3125l-10.34375-10.34375 2.34375-2.34375c5.792969-5.523438 14.898438-5.523438 20.691406 0 3.121094 3.121094 8.1875 3.121094 11.308594 0l232-232c3.125-3.125 3.125-8.191406 0-11.3125l-64-64c-3.121094-3.125-8.1875-3.125-11.308594 0l-232 232c-3.125 3.121094-3.125 8.1875 0 11.3125 5.703125 5.714844 5.703125 14.96875 0 20.6875l-2.347656 2.34375-10.34375-10.34375c-3.121094-3.125-8.1875-3.125-11.308594 0l-16 16c-1.503906 1.5-2.34375 3.53125-2.347656 5.65625.003906 7.855469-3.390625 15.328125-9.308594 20.496094l-101.289062 88.359375c-16.136719 14.4375-21.691406 37.332031-13.960938 57.558593 7.726563 20.226563 27.132813 33.585938 48.785156 33.585938zm159.085938-264 4.6875-4.691406v4.691406zm20.6875-20.691406 16-16v36.691406h-16zm64-27.308594h16v16h-16zm32 0h36.691406l-16 16h-20.691406zm0-32h16v16h-16zm32 16v-16h36.691406l-16 16zm0-48h16v16h-16zm32 16v-16h36.691406l-16 16zm0-32v-16h16v16zm-16 0h-16v-20.691406l16-16zm-32 32h-16v-20.691406l16-16zm-32 32h-16v-20.691406l16-16zm-32 32h-16v-20.691406l16-16zm-16 16h16v16h-16zm32 0h36.691406l-16 16h-20.691406zm148.691406-112h-20.691406v-16h36.691406zm-20.691406-32v-20.691406l20.691406 20.691406zm-16-36.691406v36.691406h-16v-20.691406zm-226.34375 258.347656c9.769531-9.792969 11.777344-24.90625 4.90625-36.90625l8.75-8.75h105.378906l-36.691406 36.6875v-20.6875h-16v36.6875l-8.75 8.75c-12-6.867188-27.113281-4.859375-36.902344 4.90625l-2.347656 2.34375-20.6875-20.6875zm-153.65625 123.183594 101.203125-88.296875c8.5-7.40625 13.761719-17.847657 14.65625-29.089844l8.140625-8.144531 52.691406 52.691406-8.144531 8.132812c-11.242187.902344-21.679687 6.164063-29.089844 14.664063l-88.253906 101.128906c-8.917969 10.101563-22.703125 14.421875-35.789063 11.214844-13.085937-3.207031-23.3125-13.410156-26.546874-26.488281-3.238282-13.082032 1.054687-26.875 11.132812-35.8125zm0 0"
     id="path2"
     style="fill:#ffffff" />
  <path
     d="m56 443.300781c5.125.007813 10.035156-2.023437 13.65625-5.644531l16-16c7.371094-7.574219 7.292969-19.660156-.179688-27.132812-7.46875-7.476563-19.554687-7.5625-27.128906-.195313l-16 16c-5.539062 5.519531-7.199218 13.832031-4.210937 21.054687 2.992187 7.226563 10.046875 11.929688 17.863281 11.917969zm-2.34375-21.644531 16-16c1.296875-1.296875 3.394531-1.296875 4.691406 0 1.292969 1.292969 1.292969 3.390625 0 4.6875l-16 16c-1.292968 1.292969-3.390625 1.296875-4.6875.003906-1.292968-1.292968-1.292968-3.390625-.003906-4.683594zm0 0"
     id="path4"
     style="fill:#ffffff" />
</svg>
