<?xml version="1.0" encoding="UTF-8" standalone="no"?>
<svg
   xmlns:dc="http://purl.org/dc/elements/1.1/"
   xmlns:cc="http://creativecommons.org/ns#"
   xmlns:rdf="http://www.w3.org/1999/02/22-rdf-syntax-ns#"
   xmlns:svg="http://www.w3.org/2000/svg"
   xmlns="http://www.w3.org/2000/svg"
   xmlns:sodipodi="http://sodipodi.sourceforge.net/DTD/sodipodi-0.dtd"
   xmlns:inkscape="http://www.inkscape.org/namespaces/inkscape"
   id="Capa_1"
   enable-background="new 0 0 512 512"
   height="512"
   viewBox="0 0 512 512"
   width="512"
   version="1.1"
   sodipodi:docname="glue.svg"
   inkscape:version="0.92.2 (5c3e80d, 2017-08-06)">
  <metadata
     id="metadata13">
    <rdf:RDF>
      <cc:Work
         rdf:about="">
        <dc:format>image/svg+xml</dc:format>
        <dc:type
           rdf:resource="http://purl.org/dc/dcmitype/StillImage" />
      </cc:Work>
    </rdf:RDF>
  </metadata>
  <defs
     id="defs11" />
  <sodipodi:namedview
     pagecolor="#ffffff"
     bordercolor="#666666"
     borderopacity="1"
     objecttolerance="10"
     gridtolerance="10"
     guidetolerance="10"
     inkscape:pageopacity="0"
     inkscape:pageshadow="2"
     inkscape:window-width="640"
     inkscape:window-height="480"
     id="namedview9"
     showgrid="false"
     inkscape:zoom="0.4609375"
     inkscape:cx="256"
     inkscape:cy="256"
     inkscape:window-x="323"
     inkscape:window-y="52"
     inkscape:window-maximized="0"
     inkscape:current-layer="Capa_1" />
  <g
     id="g6"
     style="fill:#ffffff">
    <path
       d="m354.824 242.318-21.362-19.329c3.913-3.019 6.448-7.74 6.448-13.052v-52.073c0-9.095-7.4-16.495-16.495-16.495h-25.617v-60.439c0-12-1.984-23.836-5.897-35.177l-12.646-36.66c-1.878-5.439-7.005-9.093-12.758-9.093h-20.994c-5.753 0-10.88 3.654-12.758 9.094l-3.012 8.729c-1.35 3.915.727 8.183 4.642 9.533 3.918 1.351 8.183-.727 9.533-4.642l2.663-7.718h18.856l12.298 35.649c3.369 9.764 5.077 19.954 5.077 30.286v60.439h-53.608v-60.44c0-9.309 1.395-18.54 4.145-27.435 1.223-3.956-.992-8.155-4.948-9.378-3.961-1.224-8.156.992-9.378 4.948-3.195 10.332-4.815 21.053-4.815 31.866v60.439h-25.617c-9.095 0-16.495 7.4-16.495 16.495v52.073c0 5.522 2.738 10.408 6.917 13.403l-21.31 18.884c-14.442 12.798-22.724 31.205-22.724 50.502v144.802c0 4.141 3.356 7.498 7.498 7.498s7.498-3.356 7.498-7.498v-35.167h34.827c.212 0 .354.102.383.154 14.001 26.222 41.139 42.511 70.823 42.511 29.683 0 56.82-16.289 70.823-42.51.029-.054.172-.155.384-.155h34.827v87.147c0 4.134-3.363 7.498-7.498 7.498h-197.07c-4.134 0-7.498-3.363-7.498-7.498v-16.93c0-4.141-3.356-7.498-7.498-7.498s-7.498 3.356-7.498 7.498v16.93c0 12.402 10.09 22.493 22.493 22.493h197.07c12.402 0 22.493-10.09 22.493-22.493v-197.156c.002-19.03-8.091-37.267-22.202-50.035zm-75.113-30.882v-55.072h17.432v55.072zm-32.427 0v-55.072h17.432v55.072zm-32.427 0v-55.072h17.432v55.072zm110.058-53.572v52.073c0 .827-.673 1.5-1.5 1.5h-11.278v-55.072h11.278c.827-.001 1.5.672 1.5 1.499zm-137.831 0c0-.827.673-1.5 1.5-1.5h11.278v55.072h-11.278c-.827 0-1.5-.673-1.5-1.5zm140.122 229.502c-5.732 0-10.947 3.099-13.611 8.086-11.39 21.329-33.459 34.579-57.596 34.579s-46.206-13.25-57.596-34.579c-2.663-4.988-7.878-8.086-13.61-8.086h-34.827v-39.539h32.067c6.147 0 11.707-3.624 14.164-9.231 10.41-23.754 33.883-39.103 59.801-39.103 10.147 0 19.866 2.263 28.886 6.725 3.708 1.832 8.207.314 10.045-3.395 1.835-3.712.315-8.209-3.396-10.046-11.105-5.493-23.061-8.28-35.534-8.28-31.872 0-60.736 18.873-73.535 48.079-.067.152-.24.255-.431.255h-32.067v-40.105c0-15.009 6.442-29.325 17.675-39.279l30.486-27.016h116.788l29.846 27.006c10.975 9.93 17.27 24.115 17.27 38.916v40.478h-32.068c-.19 0-.362-.102-.43-.255-2.434-5.553-5.509-10.841-9.141-15.718-2.475-3.322-7.172-4.007-10.492-1.536-3.321 2.474-4.008 7.171-1.536 10.492 2.955 3.967 5.455 8.267 7.433 12.779 2.456 5.609 8.016 9.232 14.164 9.232h32.068v39.539h-34.823z"
       id="path2"
       style="fill:#ffffff" />
    <path
       d="m256.002 316.469c-.001 0-.002 0-.003 0-3.456 0-6.645 1.731-8.531 4.631-12.354 19.014-27.082 44.485-27.082 57.849 0 19.637 15.976 35.613 35.613 35.613s35.613-15.976 35.613-35.613c0-13.365-14.728-38.835-27.081-57.847-1.883-2.9-5.072-4.633-8.529-4.633zm-.002 83.099c-11.369 0-20.618-9.249-20.618-20.618 0-6.352 8.128-23.326 20.618-43.334 12.49 20.008 20.618 36.981 20.618 43.334 0 11.369-9.249 20.618-20.618 20.618z"
       id="path4"
       style="fill:#ffffff" />
  </g>
</svg>
