<?xml version="1.0" encoding="UTF-8" standalone="no"?>
<svg
   xmlns:dc="http://purl.org/dc/elements/1.1/"
   xmlns:cc="http://creativecommons.org/ns#"
   xmlns:rdf="http://www.w3.org/1999/02/22-rdf-syntax-ns#"
   xmlns:svg="http://www.w3.org/2000/svg"
   xmlns="http://www.w3.org/2000/svg"
   xmlns:sodipodi="http://sodipodi.sourceforge.net/DTD/sodipodi-0.dtd"
   xmlns:inkscape="http://www.inkscape.org/namespaces/inkscape"
   height="512"
   viewBox="0 0 128 128"
   width="512"
   version="1.1"
   id="svg208"
   sodipodi:docname="mace.svg"
   inkscape:version="0.92.2 (5c3e80d, 2017-08-06)">
  <metadata
     id="metadata214">
    <rdf:RDF>
      <cc:Work
         rdf:about="">
        <dc:format>image/svg+xml</dc:format>
        <dc:type
           rdf:resource="http://purl.org/dc/dcmitype/StillImage" />
      </cc:Work>
    </rdf:RDF>
  </metadata>
  <defs
     id="defs212" />
  <sodipodi:namedview
     pagecolor="#ffffff"
     bordercolor="#666666"
     borderopacity="1"
     objecttolerance="10"
     gridtolerance="10"
     guidetolerance="10"
     inkscape:pageopacity="0"
     inkscape:pageshadow="2"
     inkscape:window-width="640"
     inkscape:window-height="480"
     id="namedview210"
     showgrid="false"
     inkscape:zoom="0.4609375"
     inkscape:cx="256"
     inkscape:cy="256"
     inkscape:window-x="390"
     inkscape:window-y="134"
     inkscape:window-maximized="0"
     inkscape:current-layer="svg208" />
  <g
     id="g206"
     style="fill:#ffffff">
    <path
       d="m83.545 31.578a9.105 9.105 0 1 0 12.876 0 9.115 9.115 0 0 0 -12.876.001zm10.4 10.4a5.6 5.6 0 1 1 1.642-3.963 5.566 5.566 0 0 1 -1.641 3.965z"
       id="path202"
       style="fill:#ffffff" />
    <path
       d="m127.219 36.56-10.113-6.727c-.115-.076-.24-.135-.36-.2a27.935 27.935 0 0 0 -1.905-4.609c.038-.132.081-.265.107-.4l2.4-11.907a1.752 1.752 0 0 0 -2.061-2.061l-11.907 2.395c-.133.027-.265.07-.4.108a27.828 27.828 0 0 0 -4.61-1.906c-.068-.12-.126-.244-.2-.359l-6.73-10.113a1.75 1.75 0 0 0 -2.914 0l-6.726 10.113c-.077.115-.136.239-.2.359a27.874 27.874 0 0 0 -4.611 1.906c-.132-.039-.264-.081-.4-.108l-11.905-2.395a1.752 1.752 0 0 0 -2.061 2.061l2.4 11.909c.026.132.068.263.106.395a27.91 27.91 0 0 0 -1.905 4.61c-.12.068-.244.126-.36.2l-10.116 6.729a1.75 1.75 0 0 0 0 2.914l10.112 6.726c.116.077.24.136.361.2a27.981 27.981 0 0 0 3.091 6.657l-34.559 34.562-1.229-1.228a1.748 1.748 0 0 0 -2.474 0l-20.823 20.822-6.709 6.71a1.748 1.748 0 0 0 0 2.474l11.082 11.09a1.748 1.748 0 0 0 2.474 0l20.826-20.822 6.709-6.71a1.748 1.748 0 0 0 0-2.474l-1.228-1.229 34.559-34.564a27.973 27.973 0 0 0 6.66 3.092c.067.12.126.245.2.36l6.725 10.112a1.75 1.75 0 0 0 2.914 0l6.727-10.112c.077-.115.136-.24.2-.36a27.956 27.956 0 0 0 4.611-1.905c.132.038.263.08.4.107l11.907 2.395a1.752 1.752 0 0 0 2.061-2.061l-2.4-11.906c-.026-.132-.069-.265-.107-.4a27.91 27.91 0 0 0 1.905-4.61c.12-.068.245-.126.36-.2l10.113-6.726a1.75 1.75 0 0 0 0-2.914zm-15.213-7.249a5.534 5.534 0 0 0 -3.459 5.109v7.193a5.575 5.575 0 0 0 4.3 5.375 24.74 24.74 0 0 1 -13.893 13.893 5.558 5.558 0 0 0 -5.375-4.3h-7.192a5.572 5.572 0 0 0 -5.375 4.3 24.642 24.642 0 0 1 -13.893-13.893 5.555 5.555 0 0 0 4.3-5.375v-7.193a5.575 5.575 0 0 0 -4.3-5.375 24.734 24.734 0 0 1 13.893-13.892 5.556 5.556 0 0 0 5.375 4.3h7.192a5.571 5.571 0 0 0 5.375-4.3 24.74 24.74 0 0 1 13.894 13.893c-.367.1-.022.001-.842.265zm-4.812-13.457 6.2-1.248-1.248 6.2a25.971 25.971 0 0 0 -4.952-4.952zm-17.211-10.944 5.269 7.922c.636 1.191.373 2.6-1.673 3.121h-7.192c-.838.155-2.713-1.6-1.672-3.121zm-22.163 15.896-1.247-6.2 6.2 1.248a28.824 28.824 0 0 0 -4.953 4.952zm-10.943 17.211 7.923-5.269a2.372 2.372 0 0 1 1.215-.326 2 2 0 0 1 1.907 2v7.193a2.191 2.191 0 0 1 -.35 1.13 2 2 0 0 1 -1.555.868 2.067 2.067 0 0 1 -1.217-.325zm-30.277 71.99-8.61-8.61 4.582-4.582 8.61 8.61zm-7.056 7.056-8.61-8.61 4.582-4.582 8.61 8.61zm-6.712 6.712-8.61-8.61 4.237-4.237 8.61 8.61zm20.828-20.825-8.61-8.61 4.237-4.24 8.61 8.61zm38.41-43.342-34.164 34.164-3.679-3.678 34.165-34.164a25.252 25.252 0 0 0 3.678 3.678zm17.913 11.515-5.268-7.923a2.334 2.334 0 0 1 -.337-1.113 2.011 2.011 0 0 1 2.009-2.008h7.192a2.011 2.011 0 0 1 2.009 2.008 2.279 2.279 0 0 1 -.336 1.113zm22.163-15.9 1.248 6.2-6.2-1.247a25.8 25.8 0 0 0 4.952-4.948zm3.023-11.943a2.362 2.362 0 0 1 -1.22.326 2 2 0 0 1 -1.9-2v-7.186a2.2 2.2 0 0 1 .355-1.136 2.008 2.008 0 0 1 1.55-.862 2.065 2.065 0 0 1 1.217.326l7.921 5.269z"
       id="path204"
       style="fill:#ffffff" />
  </g>
</svg>
