<?xml version="1.0" encoding="UTF-8" standalone="no"?>
<!-- Created with Inkscape (http://www.inkscape.org/) -->

<svg
   xmlns:dc="http://purl.org/dc/elements/1.1/"
   xmlns:cc="http://creativecommons.org/ns#"
   xmlns:rdf="http://www.w3.org/1999/02/22-rdf-syntax-ns#"
   xmlns:svg="http://www.w3.org/2000/svg"
   xmlns="http://www.w3.org/2000/svg"
   xmlns:sodipodi="http://sodipodi.sourceforge.net/DTD/sodipodi-0.dtd"
   xmlns:inkscape="http://www.inkscape.org/namespaces/inkscape"
   width="210mm"
   height="297mm"
   viewBox="0 0 210 297"
   version="1.1"
   id="svg8"
   inkscape:version="0.92.2 (5c3e80d, 2017-08-06)"
   sodipodi:docname="onion.svg">
  <defs
     id="defs2" />
  <sodipodi:namedview
     id="base"
     pagecolor="#ffffff"
     bordercolor="#666666"
     borderopacity="1.0"
     inkscape:pageopacity="0.0"
     inkscape:pageshadow="2"
     inkscape:zoom="0.98994949"
     inkscape:cx="439.35014"
     inkscape:cy="690.21522"
     inkscape:document-units="mm"
     inkscape:current-layer="layer1"
     showgrid="false"
     inkscape:window-width="1832"
     inkscape:window-height="1057"
     inkscape:window-x="80"
     inkscape:window-y="-8"
     inkscape:window-maximized="1" />
  <metadata
     id="metadata5">
    <rdf:RDF>
      <cc:Work
         rdf:about="">
        <dc:format>image/svg+xml</dc:format>
        <dc:type
           rdf:resource="http://purl.org/dc/dcmitype/StillImage" />
        <dc:title></dc:title>
      </cc:Work>
    </rdf:RDF>
  </metadata>
  <g
     inkscape:label="Layer 1"
     inkscape:groupmode="layer"
     id="layer1">
    <g
       id="g3814"
       transform="matrix(0.40292435,0,0,0.36219935,4.7813754,31.876551)"
       style="fill:#ffffff">
      <g
         id="g3703"
         style="fill:#ffffff">
        <g
           id="g3701"
           style="fill:#ffffff">
          <path
             id="path3699"
             d="m 85.984,231.446 c 2.811,-4.754 1.236,-10.886 -3.518,-13.698 -4.754,-2.812 -10.887,-1.237 -13.698,3.518 -11.566,19.56 -17.68,42.233 -17.68,65.571 v 1.054 c 0,13.191 1.716,26.285 5.101,38.919 1.197,4.468 5.237,7.415 9.653,7.415 0.856,0 1.728,-0.111 2.594,-0.344 5.334,-1.429 8.5,-6.912 7.071,-12.247 -2.933,-10.946 -4.419,-22.3 -4.419,-33.744 v -1.054 c 0.001,-19.757 5.152,-38.91 14.896,-55.39 z"
             inkscape:connector-curvature="0"
             style="fill:#ffffff" />
        </g>
      </g>
      <g
         id="g3709"
         style="fill:#ffffff">
        <g
           id="g3707"
           style="fill:#ffffff">
          <path
             id="path3705"
             d="m 89.021,353.581 c -0.014,-0.022 -0.052,-0.087 -0.065,-0.108 -2.859,-4.709 -8.974,-6.199 -13.692,-3.357 -4.719,2.84 -6.241,8.981 -3.419,13.711 0.013,0.022 0.051,0.086 0.065,0.107 1.878,3.094 5.16,4.797 8.53,4.797 1.76,0 3.543,-0.465 5.162,-1.439 4.719,-2.84 6.241,-8.981 3.419,-13.711 z"
             inkscape:connector-curvature="0"
             style="fill:#ffffff" />
        </g>
      </g>
      <g
         id="g3715"
         style="fill:#ffffff">
        <g
           id="g3713"
           style="fill:#ffffff">
          <path
             id="path3711"
             d="m 499.866,310.099 -28.903,-63.446 c -10.591,-23.251 -9.288,-50.34 3.487,-72.467 2.762,-4.783 1.123,-10.899 -3.66,-13.66 l -22.399,-12.933 c -2.296,-1.325 -5.026,-1.684 -7.588,-0.999 -2.562,0.687 -4.746,2.362 -6.072,4.659 -12.775,22.126 -35.584,36.8 -61.015,39.253 l -69.397,6.693 c -43.335,4.179 -82.204,29.185 -103.972,66.888 l -0.598,1.035 c -27.249,47.194 -27.517,105.984 -0.714,153.395 l 0.08,0.142 c 3.838,6.789 8.189,13.243 12.973,19.339 h -40.683 c -26.999,0 -53.563,-7.248 -76.8,-20.946 L 94.46,416.966 C 48.54,389.894 20.015,339.965 20.015,286.66 v -1.333 c 0,-41.719 20.275,-81.093 54.236,-105.326 l 63.273,-45.147 C 166.263,114.349 183.419,81.03 183.419,45.726 V 20 h 12.836 v 25.727 c 0,35.304 17.157,68.623 45.895,89.128 l 57.064,40.717 c 4.496,3.209 10.741,2.164 13.948,-2.332 3.208,-4.496 2.164,-10.741 -2.332,-13.949 L 253.766,118.574 C 230.277,101.814 216.254,74.582 216.254,45.726 V 10 c 0,-5.523 -4.477,-10 -10,-10 h -32.836 c -5.523,0 -10,4.477 -10,10 v 35.727 c 0,28.855 -14.023,56.087 -37.512,72.848 L 62.633,163.722 C 23.423,191.7 0.014,237.159 0.014,285.327 v 1.333 c 0,29.749 7.8,59.126 22.558,84.957 14.757,25.831 36.102,47.469 61.707,62.564 l 0.145,0.086 c 22.186,13.08 47.032,20.941 72.588,23.1 v 18.96 c 0,5.522 4.477,10 10,10 5.523,0 10,-4.478 10,-10 v -18.329 h 12 v 43.995 c 0,5.522 4.477,10 10,10 5.523,0 10,-4.478 10,-10 v -43.995 h 12 v 18.329 c 0,5.522 4.477,10 10,10 5.523,0 10,-4.478 10,-10 v -10.034 c 4.918,3.687 10.052,7.103 15.403,10.193 l 25.628,14.796 c 23.501,13.567 50.205,20.718 77.326,20.718 0.502,0 1.006,-0.002 1.509,-0.008 54.45,-0.531 105.189,-30.157 132.417,-77.318 l 0.628,-1.089 c 21.771,-37.703 23.992,-83.867 5.943,-123.486 z m -23.262,113.489 -0.628,1.089 c -23.706,41.059 -67.883,66.853 -115.291,67.317 -24.075,0.2 -47.799,-6.001 -68.64,-18.033 l -25.628,-14.796 c -20.812,-12.017 -38.065,-29.427 -49.875,-50.318 l -0.079,-0.142 c -23.35,-41.306 -23.117,-92.492 0.607,-133.583 l 0.598,-1.035 c 18.544,-32.119 51.654,-53.419 88.572,-56.98 l 69.397,-6.693 c 28.509,-2.75 54.386,-17.763 70.976,-40.753 l 5.958,3.44 c -11.617,25.863 -11.68,55.78 0.194,81.844 l 28.903,63.446 c 15.373,33.75 13.481,73.076 -5.064,105.197 z"
             inkscape:connector-curvature="0"
             style="fill:#ffffff" />
        </g>
      </g>
      <g
         id="g3721"
         style="fill:#ffffff">
        <g
           id="g3719"
           style="fill:#ffffff">
          <path
             id="path3717"
             d="m 463.499,326.753 c -0.007,-0.016 -0.039,-0.085 -0.046,-0.101 -2.302,-5.01 -8.21,-7.187 -13.227,-4.896 -5.015,2.289 -7.219,8.232 -4.943,13.254 0.007,0.016 0.039,0.085 0.046,0.101 1.681,3.659 5.286,5.805 9.062,5.805 1.394,0 2.812,-0.292 4.165,-0.909 5.015,-2.29 7.22,-8.233 4.943,-13.254 z"
             inkscape:connector-curvature="0"
             style="fill:#ffffff" />
        </g>
      </g>
      <g
         id="g3727"
         style="fill:#ffffff">
        <g
           id="g3725"
           style="fill:#ffffff">
          <path
             id="path3723"
             d="m 462.578,365.558 c -5.492,-0.618 -10.434,3.344 -11.044,8.833 -1.154,10.374 -4.376,20.2 -9.58,29.213 l -0.619,1.074 c -16.665,28.862 -47.717,46.993 -81.03,47.318 l -0.936,0.005 c -16.594,0 -32.958,-4.385 -47.326,-12.681 l -25.627,-14.795 c -14.63,-8.447 -26.757,-20.686 -35.083,-35.415 l -0.051,-0.089 c -16.413,-29.035 -16.25,-65.016 0.424,-93.895 l 0.602,-1.041 c 12.095,-20.95 33.691,-34.844 57.769,-37.167 l 69.396,-6.693 c 9.453,-0.911 18.771,-2.789 27.827,-5.602 2.092,9.248 5.125,18.256 9.062,26.899 l 9.464,20.775 c 2.29,5.025 8.221,7.245 13.246,4.955 5.026,-2.29 7.244,-8.22 4.955,-13.246 l -9.463,-20.775 c -4.819,-10.579 -8.055,-21.798 -9.618,-33.346 -0.415,-3.068 -2.228,-5.771 -4.91,-7.319 -2.682,-1.548 -5.929,-1.767 -8.793,-0.593 -10.784,4.421 -22.119,7.229 -33.689,8.344 l -69.396,6.693 c -30.498,2.941 -57.851,20.539 -73.166,47.067 l -0.602,1.041 c -20.201,34.988 -20.399,78.571 -0.504,113.766 l 0.051,0.089 c 10.07,17.813 24.759,32.637 42.48,42.868 l 25.627,14.795 c 17.403,10.049 37.226,15.36 57.326,15.36 l 1.119,-0.005 c 40.366,-0.396 77.981,-22.358 98.171,-57.325 l 0.619,-1.074 c 6.589,-11.411 10.671,-23.858 12.132,-36.995 0.61,-5.484 -3.344,-10.429 -8.833,-11.039 z"
             inkscape:connector-curvature="0"
             style="fill:#ffffff" />
        </g>
      </g>
      <g
         id="g3733"
         style="fill:#ffffff">
        <g
           id="g3731"
           style="fill:#ffffff">
          <path
             id="path3729"
             d="m 427.065,343.262 -28.903,-63.448 c -0.624,-1.37 -1.235,-2.762 -1.815,-4.139 -1.739,-4.126 -6.011,-6.588 -10.452,-6.038 -1.498,0.187 -2.999,0.354 -4.502,0.498 l -69.395,6.693 c -17.661,1.703 -33.5,11.894 -42.365,27.252 l -0.617,1.066 c -13.127,22.736 -13.267,51.077 -0.363,73.964 0.016,0.028 0.033,0.058 0.049,0.086 l 0.056,0.097 c 6.556,11.599 16.121,21.252 27.659,27.913 L 322.042,422 c 11.333,6.543 24.241,10.002 37.385,10.002 l 0.719,-0.004 c 26.253,-0.257 50.726,-14.558 63.873,-37.326 l 0.604,-1.048 c 8.884,-15.39 9.797,-34.217 2.442,-50.362 z m -19.766,40.366 -0.604,1.048 c -9.622,16.665 -27.534,27.135 -46.704,27.321 L 359.369,412 c -9.581,0 -19.03,-2.532 -27.328,-7.322 l -25.625,-14.794 c -8.447,-4.877 -15.449,-11.943 -20.26,-20.452 -0.02,-0.036 -0.067,-0.12 -0.088,-0.155 l -0.018,-0.031 c -9.424,-16.748 -9.315,-37.473 0.281,-54.095 l 0.617,-1.066 c 5.646,-9.78 15.727,-16.266 26.968,-17.35 l 67.031,-6.466 27.917,61.282 c 4.682,10.278 4.097,22.268 -1.565,32.077 z"
             inkscape:connector-curvature="0"
             style="fill:#ffffff" />
        </g>
      </g>
      <g
         id="g3739"
         style="fill:#ffffff">
        <g
           id="g3737"
           style="fill:#ffffff">
          <path
             id="path3735"
             d="m 371.218,312.984 c -1.459,-1.604 -3.399,-2.689 -5.529,-3.094 -7.876,-1.496 -47.922,-7.984 -62.824,11.299 -6.631,8.581 -9.078,17.415 -7.273,26.256 2.536,12.426 13.11,23.467 33.276,34.749 14.44,8.078 26.201,12.03 36.091,12.03 3.922,0 7.55,-0.621 10.933,-1.854 8.479,-3.087 14.727,-9.795 18.57,-19.936 8.636,-22.789 -17.848,-53.521 -23.244,-59.45 z m 4.54,52.362 c -2.544,6.714 -5.68,7.855 -6.711,8.231 -4.041,1.467 -12.595,1.131 -30.415,-8.839 v -10e-4 c -17.82,-9.969 -22.586,-17.082 -23.446,-21.294 -0.22,-1.074 -0.887,-4.344 3.502,-10.025 3.177,-4.111 12.824,-5.684 23.217,-5.684 5.668,0 11.56,0.469 16.741,1.247 9.571,11.337 19.972,28.819 17.112,36.365 z"
             inkscape:connector-curvature="0"
             style="fill:#ffffff" />
        </g>
      </g>
      <g
         id="g3741"
         style="fill:#ffffff" />
      <g
         id="g3743"
         style="fill:#ffffff" />
      <g
         id="g3745"
         style="fill:#ffffff" />
      <g
         id="g3747"
         style="fill:#ffffff" />
      <g
         id="g3749"
         style="fill:#ffffff" />
      <g
         id="g3751"
         style="fill:#ffffff" />
      <g
         id="g3753"
         style="fill:#ffffff" />
      <g
         id="g3755"
         style="fill:#ffffff" />
      <g
         id="g3757"
         style="fill:#ffffff" />
      <g
         id="g3759"
         style="fill:#ffffff" />
      <g
         id="g3761"
         style="fill:#ffffff" />
      <g
         id="g3763"
         style="fill:#ffffff" />
      <g
         id="g3765"
         style="fill:#ffffff" />
      <g
         id="g3767"
         style="fill:#ffffff" />
      <g
         id="g3769"
         style="fill:#ffffff" />
    </g>
  </g>
</svg>
