<?xml version="1.0" encoding="UTF-8" standalone="no"?>
<svg
   xmlns:dc="http://purl.org/dc/elements/1.1/"
   xmlns:cc="http://creativecommons.org/ns#"
   xmlns:rdf="http://www.w3.org/1999/02/22-rdf-syntax-ns#"
   xmlns:svg="http://www.w3.org/2000/svg"
   xmlns="http://www.w3.org/2000/svg"
   xmlns:sodipodi="http://sodipodi.sourceforge.net/DTD/sodipodi-0.dtd"
   xmlns:inkscape="http://www.inkscape.org/namespaces/inkscape"
   viewBox="0 0 512 512"
   style="height: 512px; width: 512px;"
   version="1.1"
   id="svg6"
   sodipodi:docname="spade.svg"
   inkscape:version="0.92.2 (5c3e80d, 2017-08-06)">
  <metadata
     id="metadata12">
    <rdf:RDF>
      <cc:Work
         rdf:about="">
        <dc:format>image/svg+xml</dc:format>
        <dc:type
           rdf:resource="http://purl.org/dc/dcmitype/StillImage" />
      </cc:Work>
    </rdf:RDF>
  </metadata>
  <defs
     id="defs10" />
  <sodipodi:namedview
     pagecolor="#ffffff"
     bordercolor="#666666"
     borderopacity="1"
     objecttolerance="10"
     gridtolerance="10"
     guidetolerance="10"
     inkscape:pageopacity="0"
     inkscape:pageshadow="2"
     inkscape:window-width="640"
     inkscape:window-height="480"
     id="namedview8"
     showgrid="false"
     inkscape:zoom="0.4609375"
     inkscape:cx="256"
     inkscape:cy="256"
     inkscape:window-x="356"
     inkscape:window-y="62"
     inkscape:window-maximized="0"
     inkscape:current-layer="svg6" />
  <g
     class=""
     transform="translate(0,0)"
     style="touch-action:none;fill:#000000"
     id="g4">
    <path
       d="m 115.326,16.008 -6.607,6.687 -84.652,85.69 5.59,6.53 c 10.402,12.15 29.93,23.87 51.26,30.993 10.664,3.562 21.715,5.826 32.377,5.492 5.407,-0.17 10.82,-1.064 15.87,-2.927 80.876,79.96 159.667,163.084 238.45,246.224 -15.764,14.68 -32.013,27.47 -47.04,36.48 56.644,56.644 126.465,79.034 164.038,55.13 23.05,-37.774 1.1,-107.81 -55.13,-164.04 -9.788,15.074 -22.24,30.962 -35.962,46.126 L 151.966,126.838 C 158.21,114.208 159.369,99 156.372,83.801 152.23,62.788 140.386,41.067 121.975,22.655 l -6.647,-6.646 z m 11.231,42.652 c 5.788,9.68 9.664,19.54 11.48,28.756 3.294,16.703 0.142,30.55 -8.735,39.428 -3.674,3.674 -9.08,5.642 -16.59,5.877 -7.508,0.236 -16.702,-1.474 -25.872,-4.536 -7.113,-2.376 -14.22,-5.65 -20.625,-9.182 l 60.344,-60.342 z"
       id="path2"
       style="fill:#ffffff;fill-opacity:1"
       inkscape:connector-curvature="0"
       sodipodi:nodetypes="ccccccccccccccccccccccccc" />
  </g>
</svg>
