<?xml version="1.0" encoding="UTF-8" standalone="no"?>
<!-- Generator: Adobe Illustrator 19.0.0, SVG Export Plug-In . SVG Version: 6.00 Build 0)  -->

<svg
   xmlns:dc="http://purl.org/dc/elements/1.1/"
   xmlns:cc="http://creativecommons.org/ns#"
   xmlns:rdf="http://www.w3.org/1999/02/22-rdf-syntax-ns#"
   xmlns:svg="http://www.w3.org/2000/svg"
   xmlns="http://www.w3.org/2000/svg"
   xmlns:sodipodi="http://sodipodi.sourceforge.net/DTD/sodipodi-0.dtd"
   xmlns:inkscape="http://www.inkscape.org/namespaces/inkscape"
   version="1.1"
   id="Capa_1"
   x="0px"
   y="0px"
   viewBox="0 0 512 512"
   style="enable-background:new 0 0 512 512;"
   xml:space="preserve"
   sodipodi:docname="spear.svg"
   inkscape:version="0.92.2 (5c3e80d, 2017-08-06)"><metadata
     id="metadata142"><rdf:RDF><cc:Work
         rdf:about=""><dc:format>image/svg+xml</dc:format><dc:type
           rdf:resource="http://purl.org/dc/dcmitype/StillImage" /></cc:Work></rdf:RDF></metadata><defs
     id="defs140" /><sodipodi:namedview
     pagecolor="#ffffff"
     bordercolor="#666666"
     borderopacity="1"
     objecttolerance="10"
     gridtolerance="10"
     guidetolerance="10"
     inkscape:pageopacity="0"
     inkscape:pageshadow="2"
     inkscape:window-width="1832"
     inkscape:window-height="1057"
     id="namedview138"
     showgrid="false"
     inkscape:zoom="1.734375"
     inkscape:cx="256"
     inkscape:cy="256"
     inkscape:window-x="80"
     inkscape:window-y="-8"
     inkscape:window-maximized="1"
     inkscape:current-layer="Capa_1" /><g
     id="g93"
     style="fill:#ffffff"><g
       id="g91"
       style="fill:#ffffff"><path
         d="M461.843,133.764L512,0L378.236,50.157L376.002,94.1l-36.421,36.421l4.972,4.971L0,480.046L31.954,512l305.289-305.287    c1.83,33.161,25.487,64.482,26.533,65.85l5.984,7.825l5.984-7.825c0.619-0.81,9.155-12.109,16.404-28.066    c20.004,12.16,40.89,17.045,41.883,17.272l9.605,2.199l-0.398-9.846c-0.072-1.79-2.024-44.154-24.134-70.769    c-8.035-9.672-16.652-17.463-25.053-22.677c-0.093-0.184-0.188-0.367-0.283-0.547l24.132-24.122L461.843,133.764z     M401.367,186.117c2.067,2.134,4.124,4.424,6.151,6.865c12.684,15.268,17.652,37.84,19.549,51.046    c-7.823-2.65-18.961-7.129-29.363-13.822c2.79-8.684,4.7-18.06,4.7-27.5C402.403,196.84,402.044,191.298,401.367,186.117z     M31.954,490.695l-10.65-10.65l333.9-333.899l1.158,1.158c-8.965,6.377-15.349,19.425-17.948,36.932L31.954,490.695z     M369.753,254.465c-6.98-11.349-17.568-31.846-17.568-51.76c0-27.975,8.936-44.694,17.576-44.694    c8.64,0,17.576,16.718,17.576,44.694C387.337,222.556,376.735,243.094,369.753,254.465z M384.37,148.223    c-3.232-2.585-6.826-4.268-10.718-4.938l-12.764-12.765l29.866-29.865l2.026-39.861l93.479-35.051l-35.051,93.48l-39.861,2.035    L384.37,148.223z"
         id="path89"
         style="fill:#ffffff" /></g></g><g
     id="g99"
     style="fill:#ffffff"><g
       id="g97"
       style="fill:#ffffff"><rect
         x="409.313"
         y="72.159"
         transform="matrix(0.7071 -0.7071 0.7071 0.7071 70.3983 329.3405)"
         width="46.872"
         height="15.065"
         id="rect95"
         style="fill:#ffffff" /></g></g><g
     id="g105"
     style="fill:#ffffff"><g
       id="g103"
       style="fill:#ffffff"><rect
         x="362.45"
         y="192.685"
         width="15.065"
         height="15.065"
         id="rect101"
         style="fill:#ffffff" /></g></g><g
     id="g107" /><g
     id="g109" /><g
     id="g111" /><g
     id="g113" /><g
     id="g115" /><g
     id="g117" /><g
     id="g119" /><g
     id="g121" /><g
     id="g123" /><g
     id="g125" /><g
     id="g127" /><g
     id="g129" /><g
     id="g131" /><g
     id="g133" /><g
     id="g135" /></svg>