<?xml version="1.0" encoding="UTF-8" standalone="no"?>
<!-- Generator: Adobe Illustrator 19.0.0, SVG Export Plug-In . SVG Version: 6.00 Build 0)  -->

<svg
   xmlns:dc="http://purl.org/dc/elements/1.1/"
   xmlns:cc="http://creativecommons.org/ns#"
   xmlns:rdf="http://www.w3.org/1999/02/22-rdf-syntax-ns#"
   xmlns:svg="http://www.w3.org/2000/svg"
   xmlns="http://www.w3.org/2000/svg"
   xmlns:sodipodi="http://sodipodi.sourceforge.net/DTD/sodipodi-0.dtd"
   xmlns:inkscape="http://www.inkscape.org/namespaces/inkscape"
   version="1.1"
   id="Capa_1"
   x="0px"
   y="0px"
   viewBox="0 0 480 480"
   style="enable-background:new 0 0 480 480;"
   xml:space="preserve"
   sodipodi:docname="sponge.svg"
   inkscape:version="0.92.2 (5c3e80d, 2017-08-06)"><metadata
     id="metadata133"><rdf:RDF><cc:Work
         rdf:about=""><dc:format>image/svg+xml</dc:format><dc:type
           rdf:resource="http://purl.org/dc/dcmitype/StillImage" /></cc:Work></rdf:RDF></metadata><defs
     id="defs131" /><sodipodi:namedview
     pagecolor="#ffffff"
     bordercolor="#666666"
     borderopacity="1"
     objecttolerance="10"
     gridtolerance="10"
     guidetolerance="10"
     inkscape:pageopacity="0"
     inkscape:pageshadow="2"
     inkscape:window-width="640"
     inkscape:window-height="480"
     id="namedview129"
     showgrid="false"
     inkscape:zoom="0.49166667"
     inkscape:cx="240"
     inkscape:cy="240"
     inkscape:window-x="350"
     inkscape:window-y="52"
     inkscape:window-maximized="0"
     inkscape:current-layer="Capa_1" /><g
     id="g6"
     style="fill:#ffffff"><g
       id="g4"
       style="fill:#ffffff"><path
         d="M479.968,175.312C475.248,120.968,430.56,80,376.024,80c-0.008,0-0.016,0-0.024,0h-6.272    c-23.448,0-46.304,4.576-67.936,13.592c-39.264,16.352-84.32,16.36-123.576,0C156.576,84.576,133.712,80,110.272,80H104    c-0.008,0-0.016,0-0.024,0C49.44,80,4.752,120.976,0,176l0.032,128.696C4.752,359.032,49.432,400,103.968,400    c0.008,0,0.024,0,0.032,0h12.632c19.024,0,37.816-3.048,55.872-9.072l16.696-5.592c32.768-10.92,68.84-10.912,101.592-0.008    l16.72,5.6c18.032,6.024,36.832,9.072,55.856,9.072H376c0.008,0,0.016,0,0.032,0c54.528,0,99.216-40.968,103.968-96V176    C480,175.768,479.992,175.536,479.968,175.312z M376.032,384c-0.008,0-0.024,0-0.032,0h-12.632    c-17.296,0-34.392-2.768-50.792-8.24l-16.72-5.608c-18.016-5.992-36.928-8.992-55.856-8.992c-18.92,0-37.856,3-55.872,9    l-16.696,5.6c-16.408,5.464-33.496,8.24-50.8,8.24h-12.64c-0.008,0-0.016,0-0.024,0c-46.168,0-84-34.688-87.968-80l-0.032-127.312    C19.968,130.68,57.8,96,103.976,96c0.008,0,0.024,0,0.024,0h6.272c21.32,0,42.104,4.16,61.784,12.36    c43.192,18,92.712,18,135.888,0c19.672-8.2,40.464-12.36,61.784-12.36H376c0.008,0,0.016,0,0.024,0    c46.064,0,83.816,34.52,87.976,80.352l0.032,126.952C460.032,349.312,422.2,384,376.032,384z"
         id="path2"
         style="fill:#ffffff" /></g></g><g
     id="g12"
     style="fill:#ffffff"><g
       id="g10"
       style="fill:#ffffff"><path
         d="M376,80h-6.272c-23.448,0-46.304,4.576-67.936,13.592c-39.264,16.352-84.32,16.36-123.576,0    C156.576,84.576,133.712,80,110.272,80H104C46.656,80,0,126.656,0,184s46.656,104,104,104h12.632    c19.024,0,37.816-3.048,55.872-9.072l16.696-5.592c32.768-10.912,68.84-10.904,101.592-0.008l16.72,5.6    c18.032,6.024,36.832,9.072,55.856,9.072H376c57.344,0,104-46.656,104-104S433.344,80,376,80z M376,272h-12.632    c-17.296,0-34.392-2.768-50.792-8.24l-16.72-5.608c-18.016-5.992-36.928-8.992-55.856-8.992c-18.92,0-37.856,3-55.872,9    l-16.696,5.6c-16.408,5.464-33.496,8.24-50.8,8.24H104c-48.52,0-88-39.48-88-88s39.48-88,88-88h6.272    c21.32,0,42.104,4.16,61.784,12.36c43.192,18,92.712,18,135.888,0c19.672-8.2,40.464-12.36,61.784-12.36H376    c48.52,0,88,39.48,88,88S424.52,272,376,272z"
         id="path8"
         style="fill:#ffffff" /></g></g><g
     id="g18"
     style="fill:#ffffff"><g
       id="g16"
       style="fill:#ffffff"><rect
         x="88"
         y="144"
         width="16"
         height="16"
         id="rect14"
         style="fill:#ffffff" /></g></g><g
     id="g24"
     style="fill:#ffffff"><g
       id="g22"
       style="fill:#ffffff"><rect
         x="128"
         y="176"
         width="16"
         height="16"
         id="rect20"
         style="fill:#ffffff" /></g></g><g
     id="g30"
     style="fill:#ffffff"><g
       id="g28"
       style="fill:#ffffff"><rect
         x="200"
         y="160"
         width="16"
         height="16"
         id="rect26"
         style="fill:#ffffff" /></g></g><g
     id="g36"
     style="fill:#ffffff"><g
       id="g34"
       style="fill:#ffffff"><rect
         x="304"
         y="216"
         width="16"
         height="16"
         id="rect32"
         style="fill:#ffffff" /></g></g><g
     id="g42"
     style="fill:#ffffff"><g
       id="g40"
       style="fill:#ffffff"><rect
         x="384"
         y="136"
         width="16"
         height="16"
         id="rect38"
         style="fill:#ffffff" /></g></g><g
     id="g48"
     style="fill:#ffffff"><g
       id="g46"
       style="fill:#ffffff"><rect
         x="408"
         y="200"
         width="16"
         height="16"
         id="rect44"
         style="fill:#ffffff" /></g></g><g
     id="g54"
     style="fill:#ffffff"><g
       id="g52"
       style="fill:#ffffff"><rect
         x="56"
         y="304"
         width="16"
         height="16"
         id="rect50"
         style="fill:#ffffff" /></g></g><g
     id="g60"
     style="fill:#ffffff"><g
       id="g58"
       style="fill:#ffffff"><rect
         x="128"
         y="336"
         width="16"
         height="16"
         id="rect56"
         style="fill:#ffffff" /></g></g><g
     id="g66"
     style="fill:#ffffff"><g
       id="g64"
       style="fill:#ffffff"><rect
         x="184"
         y="288"
         width="16"
         height="16"
         id="rect62"
         style="fill:#ffffff" /></g></g><g
     id="g72"
     style="fill:#ffffff"><g
       id="g70"
       style="fill:#ffffff"><rect
         x="248"
         y="320"
         width="16"
         height="16"
         id="rect68"
         style="fill:#ffffff" /></g></g><g
     id="g78"
     style="fill:#ffffff"><g
       id="g76"
       style="fill:#ffffff"><rect
         x="360"
         y="336"
         width="16"
         height="16"
         id="rect74"
         style="fill:#ffffff" /></g></g><g
     id="g84"
     style="fill:#ffffff"><g
       id="g82"
       style="fill:#ffffff"><rect
         x="424"
         y="296"
         width="16"
         height="16"
         id="rect80"
         style="fill:#ffffff" /></g></g><g
     id="g90"
     style="fill:#ffffff"><g
       id="g88"
       style="fill:#ffffff"><rect
         x="312"
         y="136"
         width="16"
         height="16"
         id="rect86"
         style="fill:#ffffff" /></g></g><g
     id="g96"
     style="fill:#ffffff"><g
       id="g94"
       style="fill:#ffffff"><rect
         x="64"
         y="224"
         width="16"
         height="16"
         id="rect92"
         style="fill:#ffffff" /></g></g><g
     id="g98" /><g
     id="g100" /><g
     id="g102" /><g
     id="g104" /><g
     id="g106" /><g
     id="g108" /><g
     id="g110" /><g
     id="g112" /><g
     id="g114" /><g
     id="g116" /><g
     id="g118" /><g
     id="g120" /><g
     id="g122" /><g
     id="g124" /><g
     id="g126" /></svg>