<?xml version="1.0" encoding="UTF-8" standalone="no"?>
<svg
   xmlns:dc="http://purl.org/dc/elements/1.1/"
   xmlns:cc="http://creativecommons.org/ns#"
   xmlns:rdf="http://www.w3.org/1999/02/22-rdf-syntax-ns#"
   xmlns:svg="http://www.w3.org/2000/svg"
   xmlns="http://www.w3.org/2000/svg"
   xmlns:sodipodi="http://sodipodi.sourceforge.net/DTD/sodipodi-0.dtd"
   xmlns:inkscape="http://www.inkscape.org/namespaces/inkscape"
   viewBox="0 0 512 512"
   style="height: 512px; width: 512px;"
   version="1.1"
   id="svg6"
   sodipodi:docname="stake.svg"
   inkscape:version="0.92.2 (5c3e80d, 2017-08-06)">
  <metadata
     id="metadata12">
    <rdf:RDF>
      <cc:Work
         rdf:about="">
        <dc:format>image/svg+xml</dc:format>
        <dc:type
           rdf:resource="http://purl.org/dc/dcmitype/StillImage" />
      </cc:Work>
    </rdf:RDF>
  </metadata>
  <defs
     id="defs10" />
  <sodipodi:namedview
     pagecolor="#ffffff"
     bordercolor="#666666"
     borderopacity="1"
     objecttolerance="10"
     gridtolerance="10"
     guidetolerance="10"
     inkscape:pageopacity="0"
     inkscape:pageshadow="2"
     inkscape:window-width="640"
     inkscape:window-height="480"
     id="namedview8"
     showgrid="false"
     inkscape:zoom="0.4609375"
     inkscape:cx="256"
     inkscape:cy="256"
     inkscape:window-x="367"
     inkscape:window-y="59"
     inkscape:window-maximized="0"
     inkscape:current-layer="svg6" />
  <g
     class=""
     transform="translate(0,0)"
     style="touch-action:none;fill:#000000"
     id="g4">
    <path
       d="m 220.75305,24.328508 -16.31,18.842 -37.456,9.61 26.19,22.443 6.318,22.382 33.783,-9.103 44.168,8.685 40.63,-15.732 -5.312,-14.355 25.42,-9.66 -28.114,-13.124 -6.17,-19.697 -42.19,7.25 -40.957,-7.539 z m 86.527,79.752002 -27.887,11.836 -15.238,-2.996 0.314,194.21 43.106,-21.566 z m -73.365,2.895 -31.21,8.408 0.57,163.632 43.19,26.552 -0.316,-196.185 z m -26.336,195.812 46.375,187.098 -7.41,-137.502 -0.04,-25.668 -38.924,-23.928 z m 96.166,4.82 -39.242,19.63 0.04,25.116 -10.525,137.56 z"
       id="path2"
       style="fill:#ffffff;fill-opacity:1"
       inkscape:connector-curvature="0"
       sodipodi:nodetypes="cccccccccccccccccccccccccccccccccccccc" />
  </g>
</svg>
