<?xml version="1.0" encoding="UTF-8" standalone="no"?>
<!-- Generator: Adobe Illustrator 19.0.0, SVG Export Plug-In . SVG Version: 6.00 Build 0)  -->

<svg
   xmlns:dc="http://purl.org/dc/elements/1.1/"
   xmlns:cc="http://creativecommons.org/ns#"
   xmlns:rdf="http://www.w3.org/1999/02/22-rdf-syntax-ns#"
   xmlns:svg="http://www.w3.org/2000/svg"
   xmlns="http://www.w3.org/2000/svg"
   xmlns:sodipodi="http://sodipodi.sourceforge.net/DTD/sodipodi-0.dtd"
   xmlns:inkscape="http://www.inkscape.org/namespaces/inkscape"
   version="1.1"
   id="Capa_1"
   x="0px"
   y="0px"
   viewBox="0 0 500.024 500.024"
   style="enable-background:new 0 0 500.024 500.024;"
   xml:space="preserve"
   sodipodi:docname="tongs.svg"
   inkscape:version="0.92.2 (5c3e80d, 2017-08-06)"><metadata
     id="metadata41"><rdf:RDF><cc:Work
         rdf:about=""><dc:format>image/svg+xml</dc:format><dc:type
           rdf:resource="http://purl.org/dc/dcmitype/StillImage" /></cc:Work></rdf:RDF></metadata><defs
     id="defs39" /><sodipodi:namedview
     pagecolor="#ffffff"
     bordercolor="#666666"
     borderopacity="1"
     objecttolerance="10"
     gridtolerance="10"
     guidetolerance="10"
     inkscape:pageopacity="0"
     inkscape:pageshadow="2"
     inkscape:window-width="640"
     inkscape:window-height="480"
     id="namedview37"
     showgrid="false"
     inkscape:zoom="0.47197736"
     inkscape:cx="250.01199"
     inkscape:cy="250.01199"
     inkscape:window-x="319"
     inkscape:window-y="80"
     inkscape:window-maximized="0"
     inkscape:current-layer="Capa_1" /><g
     id="g4"
     style="fill:#ffffff"><path
       d="M487.141,169.654c-10.882-15.542-27.191-25.92-45.921-29.223c-18.73-3.302-37.604,0.872-53.146,11.755l-134.186,93.958   l93.958-134.186c22.497-32.13,14.66-76.571-17.469-99.067c-12.035-8.427-26.096-12.881-40.665-12.881   c-4.156,0-8.357,0.369-12.486,1.098c-18.711,3.299-35.018,13.688-45.916,29.252l-46.567,66.503   c-12.69,18.127-8.27,43.198,9.856,55.89l28.37,19.865c1.629,1.141,3.647,1.587,5.604,1.242c1.959-0.345,3.701-1.454,4.841-3.084   l17.207-24.574c2.376-3.393,1.551-8.069-1.842-10.445L224.4,118.683l43.772-62.514c4.003-5.718,9.994-9.534,16.869-10.747   c6.849-1.203,13.833,0.343,19.526,4.329c11.803,8.265,14.682,24.592,6.417,36.396L168.353,289.846   c-7.067,10.092-14.792,26.677-17.968,38.577l-24.502,91.772c-0.552,2.065-4.699,6.494-6.725,7.18l-70.314,23.814l23.814-70.317   c0.686-2.024,5.114-6.171,7.18-6.723l41.908-11.189c4.002-1.068,6.38-5.179,5.312-9.181c-1.069-4.003-5.183-6.38-9.181-5.312   l-41.908,11.189c-6.884,1.838-15.234,9.657-17.518,16.404l-28.121,83.036l-7.183,7.183c-2.179,0.185-4.355-0.572-5.938-2.156   c-2.027-2.026-2.713-4.981-1.793-7.707l28.829-85.165c3.892-11.498,16.128-22.957,27.857-26.088l58.404-15.594   c4.002-1.068,6.38-5.179,5.312-9.181c-1.069-4.004-5.182-6.379-9.181-5.312l-58.404,15.594   c-16.618,4.436-32.681,19.479-38.196,35.771L1.202,451.615c-2.759,8.172-0.691,17.029,5.397,23.118   c3.426,3.425,7.781,5.561,12.391,6.292c0.728,4.618,2.879,8.979,6.31,12.408c4.244,4.244,9.89,6.582,15.896,6.582   c2.462,0,4.892-0.398,7.226-1.188l85.166-28.828c16.291-5.516,31.334-21.579,35.771-38.196l24.199-90.634   c6.38-3.075,12.2-6.389,16.627-9.49l203.701-142.632c5.706-3.996,12.639-5.524,19.523-4.314   c6.884,1.214,12.876,5.025,16.872,10.731c4.003,5.718,5.541,12.652,4.329,19.526s-5.028,12.865-10.746,16.868l-62.515,43.773   l-17.072-24.381c-2.375-3.394-7.053-4.218-10.445-1.842l-24.574,17.207c-1.629,1.141-2.739,2.882-3.084,4.841   c-0.345,1.959,0.102,3.976,1.243,5.604l19.865,28.37c12.692,18.125,37.765,22.548,55.89,9.854l66.503-46.566   c15.564-10.897,25.953-27.203,29.252-45.915C502.224,204.094,498.04,185.217,487.141,169.654z M154.866,427.934   c-3.131,11.729-14.59,23.965-26.088,27.857l-85.16,28.827c-0.78,0.263-1.595,0.396-2.422,0.396c-2,0-3.879-0.777-5.291-2.189   c-1.579-1.578-2.352-3.746-2.173-5.92l7.202-7.201l83.033-28.121c6.749-2.284,14.569-10.634,16.407-17.519l24.503-91.772   c2.695-10.098,9.766-25.279,15.763-33.843L323.272,94.75c13.008-18.579,8.477-44.277-10.102-57.286   c-6.958-4.872-15.092-7.447-23.521-7.447c-2.402,0-4.829,0.213-7.214,0.634c-10.82,1.908-20.25,7.916-26.551,16.915l-46.566,66.504   c-3.203,4.574-2.087,10.903,2.488,14.107l22.227,15.563l-8.604,12.287l-22.227-15.563c-11.35-7.947-14.119-23.648-6.172-34.999   l46.566-66.503c8.6-12.282,21.468-20.48,36.233-23.084c3.271-0.576,6.596-0.869,9.882-0.869c11.475,0,22.561,3.517,32.061,10.168   c25.354,17.752,31.538,52.822,13.785,78.177l-142.633,203.7c-5.07,7.241-11.279,20.57-13.557,29.107L154.866,427.934z    M484.153,220.2c-2.603,14.767-10.801,27.634-23.083,36.233l-66.503,46.566c-11.351,7.949-27.05,5.18-34.999-6.171l-15.563-22.227   l12.287-8.604l15.563,22.227c3.202,4.574,9.53,5.691,14.108,2.487l66.503-46.566c9-6.301,15.007-15.73,16.915-26.551   c1.907-10.82-0.513-21.735-6.814-30.734c-6.293-8.988-15.724-14.99-26.554-16.899c-10.827-1.909-21.744,0.506-30.731,6.799   L203.783,317.85c0.488-0.791,0.968-1.533,1.43-2.193l23.52-33.589l167.945-117.595c12.26-8.585,27.154-11.878,41.938-9.27   c14.785,2.606,27.654,10.794,36.239,23.054C483.454,190.54,486.757,205.435,484.153,220.2z"
       id="path2"
       style="fill:#ffffff" /></g><g
     id="g6" /><g
     id="g8" /><g
     id="g10" /><g
     id="g12" /><g
     id="g14" /><g
     id="g16" /><g
     id="g18" /><g
     id="g20" /><g
     id="g22" /><g
     id="g24" /><g
     id="g26" /><g
     id="g28" /><g
     id="g30" /><g
     id="g32" /><g
     id="g34" /></svg>