<?xml version="1.0" encoding="UTF-8" standalone="no"?>
<svg
   xmlns:dc="http://purl.org/dc/elements/1.1/"
   xmlns:cc="http://creativecommons.org/ns#"
   xmlns:rdf="http://www.w3.org/1999/02/22-rdf-syntax-ns#"
   xmlns:svg="http://www.w3.org/2000/svg"
   xmlns="http://www.w3.org/2000/svg"
   xmlns:sodipodi="http://sodipodi.sourceforge.net/DTD/sodipodi-0.dtd"
   xmlns:inkscape="http://www.inkscape.org/namespaces/inkscape"
   viewBox="0 0 512 512"
   style="height: 512px; width: 512px;"
   version="1.1"
   id="svg48"
   sodipodi:docname="trumpet.svg"
   inkscape:version="0.92.2 (5c3e80d, 2017-08-06)">
  <metadata
     id="metadata54">
    <rdf:RDF>
      <cc:Work
         rdf:about="">
        <dc:format>image/svg+xml</dc:format>
        <dc:type
           rdf:resource="http://purl.org/dc/dcmitype/StillImage" />
        <dc:title />
      </cc:Work>
    </rdf:RDF>
  </metadata>
  <defs
     id="defs52" />
  <sodipodi:namedview
     pagecolor="#ffffff"
     bordercolor="#666666"
     borderopacity="1"
     objecttolerance="10"
     gridtolerance="10"
     guidetolerance="10"
     inkscape:pageopacity="0"
     inkscape:pageshadow="2"
     inkscape:window-width="1832"
     inkscape:window-height="1057"
     id="namedview50"
     showgrid="false"
     inkscape:zoom="1.3037281"
     inkscape:cx="276.34173"
     inkscape:cy="240.78026"
     inkscape:window-x="80"
     inkscape:window-y="-8"
     inkscape:window-maximized="1"
     inkscape:current-layer="svg48" />
  <g
     class=""
     transform="translate(1.5340622,150.3381)"
     style="fill:#ffffff"
     id="g46">
    <path
       d="M 476,18.28 C 465,32.21 448.4,44.42 430.8,55.59 408.3,69.93 384,82.05 368,90.1 L 366.1,91 H 325 v 30 h 41.1 l 1.9,0.9 c 16,8 40.3,20.2 62.8,34.5 17.6,11.2 34.2,23.4 45.2,37.3 3.5,-6.9 6.8,-16.1 9.2,-27.1 3.8,-17.7 5.8,-39.1 5.8,-60.6 0,-21.45 -2,-42.93 -5.8,-60.6 -2.4,-11 -5.7,-20.18 -9.2,-27.12 z M 36,79 c -5,0 -10.04,0.98 -12.85,2.22 -1.3,0.58 -1.93,1.13 -2.15,1.35 v 46.83 c 0.22,0.2 0.85,0.8 2.15,1.4 2.81,1.2 7.85,2.2 12.85,2.2 5,0 10.04,-1 12.85,-2.2 1.3,-0.6 1.93,-1.2 2.15,-1.4 V 82.57 C 50.78,82.35 50.15,81.8 48.85,81.22 46.04,79.98 41,79 36,79 Z m 33,12 v 30 h 46 V 91 Z m 64,0 v 30 h 30 V 91 Z m 48,0 v 30 h 78 V 91 Z m 96,0 v 30 h 30 V 91 Z"
       id="path44"
       style="fill:#ffffff;fill-opacity:1"
       inkscape:connector-curvature="0"
       sodipodi:nodetypes="cccccccccccsccsccccsccccscccccccccccccccccccc" />
  </g>
</svg>
