<?xml version="1.0" encoding="UTF-8" standalone="no"?>
<!-- Generator: Adobe Illustrator 19.0.0, SVG Export Plug-In . SVG Version: 6.00 Build 0)  -->

<svg
   xmlns:dc="http://purl.org/dc/elements/1.1/"
   xmlns:cc="http://creativecommons.org/ns#"
   xmlns:rdf="http://www.w3.org/1999/02/22-rdf-syntax-ns#"
   xmlns:svg="http://www.w3.org/2000/svg"
   xmlns="http://www.w3.org/2000/svg"
   xmlns:sodipodi="http://sodipodi.sourceforge.net/DTD/sodipodi-0.dtd"
   xmlns:inkscape="http://www.inkscape.org/namespaces/inkscape"
   version="1.1"
   id="Capa_1"
   x="0px"
   y="0px"
   viewBox="0 0 330.986 330.986"
   style="enable-background:new 0 0 330.986 330.986;"
   xml:space="preserve"
   sodipodi:docname="wineskin.svg"
   inkscape:version="0.92.2 (5c3e80d, 2017-08-06)"><metadata
     id="metadata55"><rdf:RDF><cc:Work
         rdf:about=""><dc:format>image/svg+xml</dc:format><dc:type
           rdf:resource="http://purl.org/dc/dcmitype/StillImage" /></cc:Work></rdf:RDF></metadata><defs
     id="defs53" /><sodipodi:namedview
     pagecolor="#ffffff"
     bordercolor="#666666"
     borderopacity="1"
     objecttolerance="10"
     gridtolerance="10"
     guidetolerance="10"
     inkscape:pageopacity="0"
     inkscape:pageshadow="2"
     inkscape:window-width="640"
     inkscape:window-height="480"
     id="namedview51"
     showgrid="false"
     inkscape:zoom="0.71302111"
     inkscape:cx="165.493"
     inkscape:cy="165.493"
     inkscape:window-x="296"
     inkscape:window-y="35"
     inkscape:window-maximized="0"
     inkscape:current-layer="Capa_1" /><g
     id="g6"
     style="fill:#ffffff"><g
       id="g4"
       style="fill:#ffffff"><path
         d="M330.984,19.397c0-5.181-2.018-10.052-5.681-13.715C321.64,2.018,316.768,0,311.587,0c-5.181,0-10.052,2.018-13.716,5.681    l-6.858,6.858l-3.43-3.43c-1.894-1.893-4.964-1.893-6.857,0s-1.893,4.964,0,6.856c0.001,0.001-13.912,13.913-13.912,13.913    c-7.718-6.183-17.255-9.549-27.334-9.549c-3.716,0-7.421,0.468-11.044,1.399L106.459,53.968    c-24.685,6.149-47.277,18.944-65.338,37.006c-4.758,4.758-9.093,9.78-13.026,15.011c-0.121,0.144-0.234,0.292-0.336,0.445    c-41.026,55.03-36.578,133.489,13.362,183.428c26.521,26.521,61.837,41.127,99.442,41.127c37.606,0,72.922-14.606,99.442-41.127    c18.06-18.06,30.856-40.654,37.006-65.336l32.247-122.01c3.448-13.415,0.319-27.688-8.159-38.339l13.917-13.916    c0.948,0.947,2.189,1.421,3.429,1.421c1.241,0,2.482-0.473,3.429-1.42c1.893-1.893,1.893-4.964,0-6.856l-3.43-3.43l6.858-6.86    C328.966,29.449,330.984,24.578,330.984,19.397z M289.042,65.431l-8.615,32.537l-47.41-47.41l32.537-8.614L289.042,65.431z     M277.555,108.81l-28.896,109.144c-4.916,19.378-15.022,37.128-29.227,51.332c-4.398,4.398-9.103,8.378-14.059,11.931    c-0.149,0.096-0.295,0.2-0.434,0.314c-18.695,13.269-40.985,20.423-64.376,20.423c-23.394,0-45.686-7.156-64.383-20.429    c-0.136-0.111-0.278-0.212-0.423-0.306c-4.958-3.554-9.664-7.535-14.063-11.934c-4.4-4.4-8.38-9.106-11.935-14.064    c-0.093-0.143-0.193-0.283-0.303-0.418c-13.274-18.698-20.432-40.992-20.432-64.387c0-23.391,7.155-45.681,20.424-64.377    c0.114-0.14,0.217-0.284,0.314-0.433c3.554-4.956,7.533-9.661,11.932-14.06C76.061,97.18,94.026,87.018,113.647,82.16    c0.025-0.006,0.05-0.013,0.076-0.019l108.451-28.713L277.555,108.81z M108.833,63.37c0.023-0.005,0.045-0.012,0.068-0.017    l121.98-32.239c2.803-0.72,5.696-1.085,8.599-1.085c5.97,0,11.692,1.519,16.733,4.357L111.278,72.757    c-13.412,3.325-26.107,8.932-37.567,16.516l-6.992-6.992C79.49,73.551,93.743,67.125,108.833,63.37z M47.978,97.831    c3.449-3.449,7.078-6.688,10.863-9.714l6.914,6.914c-3.812,2.992-7.465,6.207-10.918,9.659c-3.466,3.466-6.692,7.107-9.678,10.898    l-6.895-6.895C41.268,104.939,44.5,101.309,47.978,97.831z M32.431,116.574l6.969,6.969    c-13.057,19.665-20.071,42.729-20.071,66.874c0,24.144,7.014,47.209,20.071,66.874l-6.969,6.969    C2.12,219.91,2.12,160.922,32.431,116.574z M58.836,292.719c-3.768-3.019-7.396-6.255-10.859-9.717    c-3.477-3.477-6.709-7.109-9.713-10.863l6.895-6.895c2.986,3.792,6.212,7.433,9.678,10.899s7.107,6.692,10.898,9.678    L58.836,292.719z M140.564,321.29c-26.769-0.001-52.286-7.956-73.853-22.73l6.979-6.979c19.665,13.058,42.73,20.072,66.874,20.072    s47.209-7.014,66.874-20.071l6.979,6.979C192.85,313.334,167.333,321.29,140.564,321.29z M233.149,283.003    c-3.462,3.462-7.091,6.698-10.859,9.717l-6.899-6.899c3.792-2.986,7.433-6.212,10.899-9.678c3.451-3.451,6.666-7.105,9.659-10.917    l6.915,6.915C239.837,275.924,236.598,279.553,233.149,283.003z M299.876,100.067l-32.248,122.012    c-0.006,0.023-0.012,0.045-0.017,0.068c-3.755,15.091-10.181,29.343-18.912,42.115l-6.99-6.99    c7.46-11.272,13.004-23.741,16.337-36.883L296.592,74.8C300.815,82.373,302.089,91.454,299.876,100.067z M294.442,57.118    l-20.576-20.576l13.717-13.717c0.003,0.003,20.572,20.571,20.572,20.571C308.159,43.4,294.442,57.118,294.442,57.118z     M318.446,26.255l-6.858,6.858L297.87,19.397l6.858-6.858c1.833-1.832,4.269-2.841,6.859-2.841s5.027,1.009,6.859,2.841    c1.832,1.832,2.841,4.268,2.841,6.859C321.288,21.988,320.279,24.423,318.446,26.255z"
         id="path2"
         style="fill:#ffffff" /></g></g><g
     id="g12"
     style="fill:#ffffff"><g
       id="g10"
       style="fill:#ffffff"><path
         d="M171.424,159.556c-8.244-8.243-19.204-12.783-30.862-12.783c-11.657,0-22.617,4.539-30.861,12.783    c-17.016,17.016-17.016,44.705,0,61.722c8.244,8.243,19.204,12.783,30.861,12.783c11.658,0,22.618-4.539,30.862-12.783    C188.441,204.261,188.441,176.573,171.424,159.556z M164.568,214.421c-6.412,6.412-14.936,9.943-24.005,9.943    c-9.067,0-17.592-3.531-24.004-9.943c-13.236-13.236-13.236-34.772,0-48.008c6.412-6.412,14.936-9.943,24.004-9.943    c9.068,0,17.593,3.531,24.005,9.943C177.804,179.649,177.804,201.185,164.568,214.421z"
         id="path8"
         style="fill:#ffffff" /></g></g><g
     id="g18"
     style="fill:#ffffff"><g
       id="g16"
       style="fill:#ffffff"><path
         d="M185.14,145.839c-10.607-10.606-24.672-17.093-39.606-18.267c-14.764-1.158-29.504,2.91-41.504,11.461    c-2.181,1.554-2.689,4.581-1.135,6.762c1.553,2.181,4.581,2.69,6.762,1.135c21.267-15.156,50.128-12.731,68.625,5.766    c10.076,10.075,15.624,23.472,15.624,37.721c0,14.249-5.549,27.645-15.624,37.721c-10.075,10.075-23.471,15.624-37.72,15.624    c-14.249,0-27.645-5.549-37.721-15.624c-18.497-18.497-20.922-47.358-5.766-68.625c1.554-2.181,1.046-5.209-1.135-6.762    c-2.182-1.554-5.209-1.045-6.762,1.135c-8.552,12-12.622,26.739-11.461,41.504c1.173,14.934,7.661,28.999,18.267,39.606    c11.907,11.907,27.738,18.465,44.578,18.465c16.839,0,32.67-6.558,44.577-18.465c11.907-11.907,18.464-27.738,18.464-44.578    C203.605,173.576,197.047,157.745,185.14,145.839z"
         id="path14"
         style="fill:#ffffff" /></g></g><g
     id="g20" /><g
     id="g22" /><g
     id="g24" /><g
     id="g26" /><g
     id="g28" /><g
     id="g30" /><g
     id="g32" /><g
     id="g34" /><g
     id="g36" /><g
     id="g38" /><g
     id="g40" /><g
     id="g42" /><g
     id="g44" /><g
     id="g46" /><g
     id="g48" /></svg>